<svg width="145px" height="19px" viewBox="0 0 145 19" version="1.1" xmlns="http://www.w3.org/2000/svg" xmlns:xlink="http://www.w3.org/1999/xlink">
  <path d="M3.375,18 L0,18 L0,0.45 L10.75,0.45 L10.75,3.3 L3.375,3.3 L3.375,7.675 L9.2,7.675 L9.2,10.525 L3.375,10.525 L3.375,18 Z M13.375,9.225 C13.375,4.2 17.225,0.1 22.675,0.1 C28.1,0.1 32,4.2 32,9.225 C32,14.25 28.1,18.35 22.675,18.35 C17.225,18.35 13.375,14.25 13.375,9.225 Z M17,9.225 C17,12.95 19.675,15.275 22.675,15.275 C25.65,15.275 28.375,12.95 28.375,9.225 C28.375,5.5 25.65,3.125 22.675,3.125 C19.675,3.125 17,5.5 17,9.225 Z M48.15,6.05 C48.15,8.35 46.7,10.175 45.05,11 L49.55,18 L45.45,18 L41.75,11.95 C41,12.025 40.25,12.05 39.4,11.975 L39.4,18 L36.025,18 L36.025,0.6 C44.325,-0.825 48.15,1.725 48.15,6.05 Z M39.4,3.4 L39.4,9.05 C43.075,9.425 44.675,8.05 44.675,6 C44.675,4.125 42.975,2.85 39.4,3.4 Z M56.35,15.15 L64.175,15.15 L64.175,18 L52.975,18 L52.975,0.45 L63.925,0.45 L63.925,3.3 L56.35,3.3 L56.35,7.675 L62.6,7.675 L62.6,10.525 L56.35,10.525 L56.35,15.15 Z M79.35,1.525 L78.275,4.35 C77.225,3.775 75.575,3.15 74.325,3.15 C72.65,3.15 71.425,3.9 71.425,5.075 C71.425,6.3 72.85,7.025 74.775,7.75 C78.85,9.35 80.025,11.225 79.95,13.4 C79.875,16.55 77.05,18.375 73.6,18.35 C71.05,18.325 68.85,17.25 67.725,16.35 L69,13.75 C69.975,14.475 71.675,15.35 73.375,15.35 C74.925,15.35 76.575,14.75 76.575,13.45 C76.575,12 74.575,11.35 72.475,10.425 C69.75,9.175 68.025,7.65 68.025,5.075 C68.025,2.575 70.15,0.1 74.025,0.1 C76.075,0.1 78.425,1.05 79.35,1.525 Z M84.475,18 L84.475,0.45 L87.85,0.45 L87.85,18 L84.475,18 Z M102.825,11.45 L102.825,8.625 L109.1,8.625 L109.1,15.325 C106.825,17.675 104.4,18.35 101.625,18.35 C96.075,18.35 92.125,14.3 92.125,9.175 C92.125,3.8 96.525,0.1 101.375,0.1 C104.925,0.1 106.925,1.525 108.225,2.75 L106.125,5.175 C105.3,4.35 103.875,3.125 101.5,3.125 C98.275,3.125 95.775,5.775 95.775,9.1 C95.775,12.825 98.225,15.325 101.825,15.325 C103.25,15.325 105.05,14.775 105.825,14.025 L105.825,11.45 L102.825,11.45 Z M123.925,18 L123.925,10.525 L116.75,10.525 L116.75,18 L113.375,18 L113.375,0.45 L116.75,0.45 L116.75,7.675 L123.925,7.675 L123.925,0.45 L127.3,0.45 L127.3,18 L123.925,18 Z M144.175,0.45 L144.175,3.3 L139.25,3.3 L139.25,18 L135.875,18 L135.875,3.3 L130.975,3.3 L130.975,0.45 L144.175,0.45 Z" fill="currentColor"></path>
</svg>